<svg width="300" height="300" xmlns="http://www.w3.org/2000/svg">
  <!-- Фон -->
  <rect width="300" height="300" fill="#80CBC4"/>

  <!-- Звездочки -->
  <path d="M 50 50 L 52 58 L 60 58 L 53 63 L 55 71 L 50 66 L 45 71 L 47 63 L 40 58 L 48 58 Z" fill="white" opacity="0.5"/>
  <path d="M 250 80 L 252 88 L 260 88 L 253 93 L 255 101 L 250 96 L 245 101 L 247 93 L 240 88 L 248 88 Z" fill="white" opacity="0.5"/>
  <path d="M 80 250 L 82 258 L 90 258 L 83 263 L 85 271 L 80 266 L 75 271 L 77 263 L 70 258 L 78 258 Z" fill="white" opacity="0.5"/>

  <!-- Панда -->
  <!-- Тело -->
  <ellipse cx="150" cy="180" rx="60" ry="70" fill="white"/>

  <!-- Голова -->
  <circle cx="150" cy="100" r="50" fill="white"/>

  <!-- Уши -->
  <circle cx="120" cy="70" r="20" fill="black"/>
  <circle cx="180" cy="70" r="20" fill="black"/>

  <!-- Глаза (черные пятна) -->
  <ellipse cx="135" cy="95" rx="15" ry="18" fill="black"/>
  <ellipse cx="165" cy="95" rx="15" ry="18" fill="black"/>

  <!-- Глаза (белые блики) -->
  <ellipse cx="140" cy="90" rx="5" ry="6" fill="white"/>
  <ellipse cx="170" cy="90" rx="5" ry="6" fill="white"/>

  <!-- Нос -->
  <ellipse cx="150" cy="110" rx="8" ry="6" fill="black"/>

  <!-- Рот (грустный) -->
  <path d="M 140 125 Q 150 115 160 125" stroke="black" stroke-width="3" fill="none"/>

  <!-- Румянец -->
  <ellipse cx="120" cy="110" rx="12" ry="8" fill="#FFB6C1" opacity="0.6"/>
  <ellipse cx="180" cy="110" rx="12" ry="8" fill="#FFB6C1" opacity="0.6"/>

  <!-- Руки (опущены) -->
  <ellipse cx="110" cy="160" rx="25" ry="35" fill="black"/>
  <ellipse cx="190" cy="160" rx="25" ry="35" fill="black"/>

  <!-- Ноги -->
  <ellipse cx="130" cy="240" rx="20" ry="25" fill="black"/>
  <ellipse cx="170" cy="240" rx="20" ry="25" fill="black"/>

  <!-- Хвост -->
  <circle cx="120" cy="220" r="12" fill="white"/>
</svg>
