<svg width="300" height="300" xmlns="http://www.w3.org/2000/svg">
  <!-- Фон -->
  <rect width="300" height="300" fill="#FFF9C4"/>

  <!-- Конфетти -->
  <rect x="45" y="30" width="8" height="12" fill="#F44336" transform="rotate(25 49 36)"/>
  <rect x="245" y="60" width="6" height="10" fill="#FF9800" transform="rotate(-15 248 65)"/>
  <rect x="75" y="230" width="7" height="11" fill="#4CAF50" transform="rotate(45 78.5 235.5)"/>
  <rect x="215" y="220" width="5" height="9" fill="#2196F3" transform="rotate(-30 217.5 224.5)"/>
  <rect x="145" y="20" width="6" height="10" fill="#9C27B0" transform="rotate(60 148 25)"/>
  <rect x="270" y="150" width="7" height="11" fill="#E91E63" transform="rotate(20 273.5 155.5)"/>
  <rect x="30" y="150" width="6" height="10" fill="#00BCD4" transform="rotate(-45 33 155)"/>
  <rect x="160" y="260" width="5" height="9" fill="#FFC107" transform="rotate(35 162.5 264.5)"/>

  <!-- Панда -->
  <!-- Тело -->
  <ellipse cx="150" cy="180" rx="65" ry="75" fill="white"/>

  <!-- Голова -->
  <circle cx="150" cy="100" r="55" fill="white"/>

  <!-- Уши -->
  <circle cx="115" cy="65" r="22" fill="black"/>
  <circle cx="185" cy="65" r="22" fill="black"/>
  <circle cx="115" cy="65" r="15" fill="white" opacity="0.3"/>

  <!-- Глаза (черные пятна) -->
  <ellipse cx="130" cy="92" rx="18" ry="20" fill="black"/>
  <ellipse cx="170" cy="92" rx="18" ry="20" fill="black"/>

  <!-- Глаза (белые блики) -->
  <ellipse cx="135" cy="87" rx="6" ry="7" fill="white"/>
  <ellipse cx="175" cy="87" rx="6" ry="7" fill="white"/>
  <ellipse cx="138" cy="90" rx="3" ry="4" fill="white" opacity="0.8"/>

  <!-- Брови (радостные) -->
  <path d="M 118 80 Q 130 75 142 80" stroke="black" stroke-width="2" fill="none"/>
  <path d="M 158 80 Q 170 75 182 80" stroke="black" stroke-width="2" fill="none"/>

  <!-- Нос -->
  <ellipse cx="150" cy="108" rx="9" ry="7" fill="black"/>

  <!-- Рот (широкая улыбка) -->
  <path d="M 130 118 Q 150 135 170 118" stroke="black" stroke-width="3.5" fill="none" stroke-linecap="round"/>

  <!-- Язык (розовый) -->
  <ellipse cx="150" cy="128" rx="10" ry="8" fill="#FF69B4"/>

  <!-- Румянец (розовые щеки) -->
  <ellipse cx="115" cy="108" rx="15" ry="10" fill="#FFB6C1" opacity="0.7"/>
  <ellipse cx="185" cy="108" rx="15" ry="10" fill="#FFB6C1" opacity="0.7"/>

  <!-- Руки (подняты высоко) -->
  <ellipse cx="95" cy="130" rx="28" ry="38" fill="black" transform="rotate(-35 95 130)"/>
  <ellipse cx="205" cy="130" rx="28" ry="38" fill="black" transform="rotate(35 205 130)"/>

  <!-- Ладони (розовые, открытые) -->
  <ellipse cx="88" cy="155" rx="14" ry="18" fill="#FF69B4"/>
  <ellipse cx="212" cy="155" rx="14" ry="18" fill="#FF69B4"/>

  <!-- Ноги -->
  <ellipse cx="125" cy="245" rx="22" ry="28" fill="black"/>
  <ellipse cx="175" cy="245" rx="22" ry="28" fill="black"/>

  <!-- Хвост -->
  <circle cx="118" cy="218" r="14" fill="white"/>
</svg>
